<svg width="105" height="50" viewBox="0 0 105 50" fill="none" xmlns="http://www.w3.org/2000/svg">
<path d="M63.7092 22.9374C59.9275 22.9374 57.7197 25.1131 57.7197 28.6961V32.3299H54.1667V19.532H57.3399L57.7197 22.859C58.8865 20.5818 60.9936 19.1467 63.7092 19.1467V22.9351V22.9374Z" fill="#615DE3"/>
<path d="M76.3426 31.9565L75.9948 30.3069C74.732 31.5804 72.9223 32.3302 70.8175 32.3302C66.704 32.3302 63.6086 29.5063 63.6086 25.734C63.6086 21.9618 66.6812 19.0894 70.8175 19.0894C72.8994 19.0894 74.732 19.8138 75.9948 21.1127L76.3426 19.4631H79.4151V31.9542H76.3426V31.9565ZM71.5611 29.234C74.1875 29.234 75.9468 27.8105 75.9468 25.7363C75.9468 23.6622 74.1623 22.1648 71.5611 22.1648C68.9598 22.1648 67.077 23.6645 67.077 25.7363C67.077 27.8082 68.9598 29.234 71.5611 29.234Z" fill="#615DE3"/>
<path d="M92.8674 26.5854C93.238 28.385 94.8235 29.5824 96.9054 29.5824C98.3924 29.5824 99.5798 29.0333 100.225 28.1335H103.744C102.803 30.6806 100.152 32.3302 96.7589 32.3302C92.499 32.3302 89.303 29.5063 89.303 25.734C89.303 21.9618 92.4739 19.0894 96.7589 19.0894C101.044 19.0894 104.167 21.7634 104.167 25.734C104.167 26.0086 104.167 26.3085 104.117 26.5831H92.8697L92.8674 26.5854ZM100.596 24.8365C100.248 23.0623 98.7882 21.9133 96.7567 21.9133C94.7251 21.9133 93.238 23.0877 92.8674 24.8365H100.596Z" fill="#615DE3"/>
<path d="M89.3005 19.4654H85.7338V16.6667H84.3474L79.7397 21.288V22.6862H82.2678V26.1077C82.2678 30.0299 84.7203 32.3279 89.3028 32.3279V29.0794C86.9235 29.0794 85.7361 28.1057 85.7361 26.1054V23.3691L83.9676 22.6862H85.7361V22.6816H89.3028V19.4584L89.3005 19.4654Z" fill="#615DE3"/>
<g clip-path="url(#clip0_420_8448)">
<path d="M24.998 49.996C38.804 49.996 49.996 38.804 49.996 24.998C49.996 11.192 38.804 0 24.998 0C11.192 0 0 11.192 0 24.998C0 38.804 11.192 49.996 24.998 49.996Z" fill="#615DE3"/>
<path d="M33.0082 15.8319C38.2936 15.8319 42.2185 19.3474 42.2185 24.5886C42.2185 27.6747 40.8299 30.1629 38.5825 31.6919L42.2185 32.8798V36.2509L31.1421 33.1246C26.8601 32.3581 23.8462 28.9389 23.8462 24.5846C23.8462 19.536 27.747 15.8279 33.0082 15.8279V15.8319ZM32.627 30.0867H33.0082C36.5238 30.0867 38.8675 27.8152 38.8675 24.5846C38.8675 21.354 36.5238 19.0344 33.0082 19.0344C29.4927 19.0344 27.1972 21.2818 27.1972 24.5846C27.1972 27.6707 29.3964 29.894 32.5788 30.0626L32.627 30.0867Z" fill="white"/>
<path d="M17.8867 16.3417H14.2026L5.91138 32.8799H9.57138L10.8074 30.4238L9.39079 28.9791H20.5835L22.5459 32.8759H26.23L17.8907 16.3376L17.8867 16.3417ZM13.0428 25.9572L16.0446 20.0057L19.0465 25.9572H13.0468H13.0428Z" fill="white"/>
</g>
<defs>
<clipPath id="clip0_420_8448">
<rect width="50" height="50" fill="white"/>
</clipPath>
</defs>
</svg>
